<svg version="1.1" xmlns="http://www.w3.org/2000/svg" xmlns:xlink="http://www.w3.org/1999/xlink" width="73" height="43.98719"><g transform="translate(-204.04375,-160.61565)"><g data-paper-data="{&quot;isPaintingLayer&quot;:true}" fill="none" fill-rule="nonzero" stroke="none" stroke-width="none" stroke-linecap="butt" stroke-linejoin="miter" stroke-miterlimit="10" stroke-dasharray="" stroke-dashoffset="0" font-family="none" font-weight="none" font-size="none" text-anchor="none" style="mix-blend-mode: normal"><path d="M204.04375,195.24385c0,-9.67902 0,-15.12226 0,-24.80128c0,-5.70688 1.28957,-9.82692 7.48718,-9.82692c8.76591,0 34.23909,0 56.15385,0c5.52426,0 9.35897,1.5749 9.35897,7.95513c0,10.59214 0,16.73152 0,27.14103c0,6.74548 -3.18415,8.89103 -9.82692,8.89103c0,0 -41.8409,0 -53.34615,0c-7.57867,0 -9.82692,-0.55908 -9.82692,-9.35897z" data-paper-data="{&quot;origPos&quot;:null}" fill="#a4d997" stroke="none" stroke-width="0"/><path d="M262.74946,191.24283c-0.11532,12.0321 -46.24946,9.27997 -46.24946,0c0,-15.2691 12.06802,-23.97509 23.29626,-23.81108c9.83131,0.1436 23.15105,3.1689 22.9532,23.81108z" data-paper-data="{&quot;origPos&quot;:null}" fill="#42d956" stroke="#00cd13" stroke-width="2"/><path d="M223,187.75c0,-0.9665 0.7835,-1.75 1.75,-1.75c0.9665,0 1.75,0.7835 1.75,1.75c0,0.9665 -0.7835,1.75 -1.75,1.75c-0.9665,0 -1.75,-0.7835 -1.75,-1.75z" data-paper-data="{&quot;origPos&quot;:null}" fill="#ff4d4d" stroke="none" stroke-width="0.5"/><path d="M228.97813,191.46875c0,-0.9665 0.7835,-1.75 1.75,-1.75c0.9665,0 1.75,0.7835 1.75,1.75c0,0.9665 -0.7835,1.75 -1.75,1.75c-0.9665,0 -1.75,-0.7835 -1.75,-1.75z" data-paper-data="{&quot;origPos&quot;:null}" fill="#ff4d4d" stroke="none" stroke-width="0.5"/><path d="M230.25,183.75c0,-0.9665 0.7835,-1.75 1.75,-1.75c0.9665,0 1.75,0.7835 1.75,1.75c0,0.9665 -0.7835,1.75 -1.75,1.75c-0.9665,0 -1.75,-0.7835 -1.75,-1.75z" data-paper-data="{&quot;origPos&quot;:null}" fill="#ff4d4d" stroke="none" stroke-width="0.5"/><path d="M243.65,191.54688c0,-0.9665 0.7835,-1.75 1.75,-1.75c0.9665,0 1.75,0.7835 1.75,1.75c0,0.9665 -0.7835,1.75 -1.75,1.75c-0.9665,0 -1.75,-0.7835 -1.75,-1.75z" data-paper-data="{&quot;origPos&quot;:null}" fill="#ff4d4d" stroke="none" stroke-width="0.5"/><path d="M237.5,190c0,-0.9665 0.7835,-1.75 1.75,-1.75c0.9665,0 1.75,0.7835 1.75,1.75c0,0.9665 -0.7835,1.75 -1.75,1.75c-0.9665,0 -1.75,-0.7835 -1.75,-1.75z" data-paper-data="{&quot;origPos&quot;:null}" fill="#ff4d4d" stroke="none" stroke-width="0.5"/><path d="M230.75,175.75c0,-0.9665 0.7835,-1.75 1.75,-1.75c0.9665,0 1.75,0.7835 1.75,1.75c0,0.9665 -0.7835,1.75 -1.75,1.75c-0.9665,0 -1.75,-0.7835 -1.75,-1.75z" data-paper-data="{&quot;origPos&quot;:null}" fill="#ff4d4d" stroke="none" stroke-width="0.5"/><path d="M239.75,181.75c0,-0.9665 0.7835,-1.75 1.75,-1.75c0.9665,0 1.75,0.7835 1.75,1.75c0,0.9665 -0.7835,1.75 -1.75,1.75c-0.9665,0 -1.75,-0.7835 -1.75,-1.75z" data-paper-data="{&quot;origPos&quot;:null}" fill="#ff4d4d" stroke="none" stroke-width="0.5"/><path d="M251.5,191.175c0,-0.9665 0.7835,-1.75 1.75,-1.75c0.9665,0 1.75,0.7835 1.75,1.75c0,0.9665 -0.7835,1.75 -1.75,1.75c-0.9665,0 -1.75,-0.7835 -1.75,-1.75z" data-paper-data="{&quot;origPos&quot;:null}" fill="#ff4d4d" stroke="none" stroke-width="0.5"/><path d="M249.30225,184.92444c-0.23441,-0.93765 0.33567,-1.88778 1.27332,-2.12219c0.93765,-0.23441 1.88778,0.33567 2.12219,1.27332c0.23441,0.93765 -0.33567,1.88778 -1.27332,2.12219c-0.93765,0.23441 -1.88778,-0.33567 -2.12219,-1.27332z" data-paper-data="{&quot;origPos&quot;:null,&quot;origRot&quot;:0}" fill="#ff4d4d" stroke="none" stroke-width="0.5"/><path d="M246.5,176c0,-0.9665 0.7835,-1.75 1.75,-1.75c0.9665,0 1.75,0.7835 1.75,1.75c0,0.9665 -0.7835,1.75 -1.75,1.75c-0.9665,0 -1.75,-0.7835 -1.75,-1.75z" data-paper-data="{&quot;origPos&quot;:null}" fill="#ff4d4d" stroke="none" stroke-width="0.5"/></g></g></svg>