<svg version="1.1" xmlns="http://www.w3.org/2000/svg" xmlns:xlink="http://www.w3.org/1999/xlink" width="73" height="43.98719"><g transform="translate(-204.04375,-160.61565)"><g data-paper-data="{&quot;isPaintingLayer&quot;:true}" fill="none" fill-rule="nonzero" stroke="none" stroke-width="none" stroke-linecap="butt" stroke-linejoin="miter" stroke-miterlimit="10" stroke-dasharray="" stroke-dashoffset="0" font-family="none" font-weight="none" font-size="none" text-anchor="none" style="mix-blend-mode: normal"><path d="M204.04375,195.24385c0,-9.67902 0,-15.12226 0,-24.80128c0,-5.70688 1.28957,-9.82692 7.48718,-9.82692c8.76591,0 34.23909,0 56.15385,0c5.52426,0 9.35897,1.5749 9.35897,7.95513c0,10.59214 0,16.73152 0,27.14103c0,6.74548 -3.18415,8.89103 -9.82692,8.89103c0,0 -41.8409,0 -53.34615,0c-7.57867,0 -9.82692,-0.55908 -9.82692,-9.35897z" data-paper-data="{&quot;origPos&quot;:null}" fill="#a4d997" stroke="none" stroke-width="0"/><path d="M240.93755,177.80168c0.86289,0.2509 2.26243,1.1511 1.99758,3.4546c-0.04013,4.04625 -0.0738,13.01398 -0.24413,19.49787c-0.18453,1.87608 -4.6899,1.47731 -4.73488,-0.25678c-0.11887,-4.58255 0.02734,-15.26279 0.22842,-19.26403c0.36327,-4.08351 -0.05586,-4.14491 2.75302,-3.43167z" data-paper-data="{&quot;origPos&quot;:null,&quot;origRot&quot;:0}" fill="#c0863a" stroke="#8e5c00" stroke-width="2"/><path d="M253.71292,177.26075c0.19167,9.97048 -26.12903,9.96226 -26.00078,0c0.1105,-8.58336 6.78447,-13.47845 13.09682,-13.38624c5.52702,0.08073 13.01519,1.78151 12.90396,13.38624z" data-paper-data="{&quot;origPos&quot;:null}" fill="#42d956" stroke="#00cd13" stroke-width="2"/><path d="M242.78047,179.40108c0,-0.54335 0.44047,-0.98382 0.98382,-0.98382c0.54335,0 0.98383,0.44047 0.98383,0.98382c0,0.54335 -0.44048,0.98382 -0.98383,0.98382c-0.54335,0 -0.98382,-0.44047 -0.98382,-0.98382z" data-paper-data="{&quot;origPos&quot;:null}" fill="#ff4d4d" stroke="none" stroke-width="0.5"/><path d="M237.54863,175.72053c0,-0.54335 0.44048,-0.98382 0.98383,-0.98382c0.54335,0 0.98382,0.44047 0.98382,0.98382c0,0.54335 -0.44047,0.98382 -0.98382,0.98382c-0.54335,0 -0.98383,-0.44047 -0.98383,-0.98382z" data-paper-data="{&quot;origPos&quot;:null}" fill="#ff4d4d" stroke="none" stroke-width="0.5"/><path d="M239.03315,167.66195c0,-0.54335 0.44047,-0.98382 0.98382,-0.98382c0.54335,0 0.98383,0.44047 0.98383,0.98382c0,0.54335 -0.44048,0.98382 -0.98383,0.98382c-0.54335,0 -0.98382,-0.44047 -0.98382,-0.98382z" data-paper-data="{&quot;origPos&quot;:null}" fill="#ff4d4d" stroke="none" stroke-width="0.5"/><path d="M233.3621,171.04736c0,-0.54335 0.44047,-0.98383 0.98382,-0.98383c0.54335,0 0.98382,0.44048 0.98382,0.98383c0,0.54335 -0.44047,0.98382 -0.98382,0.98382c-0.54335,0 -0.98382,-0.44047 -0.98382,-0.98382z" data-paper-data="{&quot;origPos&quot;:null}" fill="#ff4d4d" stroke="none" stroke-width="0.5"/><path d="M232.00407,177.91305c0,-0.54335 0.44047,-0.98382 0.98382,-0.98382c0.54335,0 0.98382,0.44047 0.98382,0.98382c0,0.54335 -0.44047,0.98382 -0.98382,0.98382c-0.54335,0 -0.98382,-0.44047 -0.98382,-0.98382z" data-paper-data="{&quot;origPos&quot;:null}" fill="#ff4d4d" stroke="none" stroke-width="0.5"/><path d="M241.23094,172.72162c0,-0.54335 0.44047,-0.98383 0.98382,-0.98383c0.54335,0 0.98382,0.44048 0.98382,0.98383c0,0.54335 -0.44047,0.98382 -0.98382,0.98382c-0.54335,0 -0.98382,-0.44047 -0.98382,-0.98382z" data-paper-data="{&quot;origPos&quot;:null}" fill="#ff4d4d" stroke="none" stroke-width="0.5"/><path d="M249.17181,176.55853c0,-0.54335 0.44047,-0.98382 0.98382,-0.98382c0.54335,0 0.98383,0.44047 0.98383,0.98382c0,0.54335 -0.44048,0.98382 -0.98383,0.98382c-0.54335,0 -0.98382,-0.44047 -0.98382,-0.98382z" data-paper-data="{&quot;origPos&quot;:null}" fill="#ff4d4d" stroke="none" stroke-width="0.5"/><path d="M246.08331,170.13556c0,-0.54335 0.44047,-0.98382 0.98382,-0.98382c0.54335,0 0.98382,0.44047 0.98382,0.98382c0,0.54335 -0.44047,0.98382 -0.98382,0.98382c-0.54335,0 -0.98382,-0.44047 -0.98382,-0.98382z" data-paper-data="{&quot;origPos&quot;:null}" fill="#ff4d4d" stroke="none" stroke-width="0.5"/></g></g></svg>